# xmcd CD database file
#
# Track frame offsets:
#	150
#	23475
#	45250
#	75150
#	100250
#	119700
#	136600
#	156450
#	194400
#	213425
#
# Disc length: 3061 seconds
#
# Revision: 0
# Processed by: cddbd v1.4PL0 Copyright (c) Steve Scherf et al.
# Submitted via: Feurio! 1.66 - http://www.feurio.com
#
DISCID=780bf30a
DTITLE=Dejan's Young Olympic Brass Band - Alive And Kicken
DYEAR=1900
DGENRE=blues
TTITLE0=Super Blue
TTITLE1=Fred G. Sanford
TTITLE2=Mashed Potatoes
TTITLE3=Preacher
TTITLE4=Shake It And Break It
TTITLE5=Back Home In Indiana
TTITLE6=Rhythm Concepts
TTITLE7=Freddie's Blues
TTITLE8=Jambalaya
TTITLE9=Wolvering Blues
EXTD=
EXTT0=
EXTT1=
EXTT2=
EXTT3=
EXTT4=
EXTT5=
EXTT6=
EXTT7=
EXTT8=
EXTT9=
PLAYORDER=
